PathFileType	4	(X/Y/Z)	C:/Users/beibeiliu/ov580/test_trc/User2\sequence.25_training_dense_left.trc
DataRate	CameraRate	NumFrames	NumMarkers	Units	OrigDataRate	OrigDataStartFrame	OrigNumFrames
120	120	20	19	mm	120	171	272
Frame#	Time	ThumbCMC			ThumbMCP			ThumbIP			ThumbTip			IndexMCP			IndexPIP			IndexTip			MiddleMCP			MiddlePIP			MiddleTip			RingMCP			RingPIP			RingTip			PinkyMCP			PinkyPIP			PinkyTip			BackHand1			BackHand2			BackHand3	
		X0	Y0	Z0	X1	Y1	Z1	X2	Y2	Z2	X3	Y3	Z3	X4	Y4	Z4	X5	Y5	Z5	X6	Y6	Z6	X7	Y7	Z7	X8	Y8	Z8	X9	Y9	Z9	X10	Y10	Z10	X11	Y11	Z11	X12	Y12	Z12	X13	Y13	Z13	X14	Y14	Z14	X15	Y15	Z15	X16	Y16	Z16	X17	Y17	Z17	X18	Y18	Z18	
170	1.41667	-185.074	-25.8381	70.2852	-176.619	-17.5108	42.5557	-165.284	-16.6888	13.3001	-153.477	-14.5	-12.2796	-133.824	-62.988	11.5423	-109.441	-48.5357	-0.453631	-105.961	-17.3313	17.8296	-111.192	-71.8304	21.9738	-91.1515	-41.2091	13.8451	-104.12	-20.5802	44.3095	-94.8911	-75.0677	38.3481	-80.6873	-47.2741	32.7595	-98.8083	-28.1011	53.0637	-95.2831	-84.2267	70.667	-75.7611	-88.4216	54.5809	-53.2713	-95.3877	37.1196	-140.457	-80.0471	88.1107	-161.414	-77.682	113.176	-177.005	-65.6935	78.377	
171	1.425	-187.081	-20.4323	71.643	-173.496	-14.5758	44.9321	-160.293	-14.9036	12.8604	-152.603	-9.40386	-7.14041	-135.757	-57.7215	9.86008	-109.928	-45.3817	1.39851	-104.946	-13.8033	19.8991	-115.371	-68.5124	20.8397	-92.1903	-43.8632	13.719	-105.822	-16.3213	43.8153	-102.495	-72.8092	37.3462	-81.6513	-51.1581	31.573	-101.902	-26.3497	55.9271	-100.497	-82.8295	69.2472	-78.8059	-90.4775	51.2981	-61.1755	-94.0917	36.1785	-142.619	-79.3233	83.114	-167.884	-74.4678	112.161	-181.738	-58.0403	75.3685	
172	1.43333	-187.956	-16.8781	71.8726	-178.106	-7.95898	43.0189	-163.129	-10.3661	12.0766	-155.484	-1.81967	-10.3101	-142.13	-53.1069	11.7231	-112.351	-41.6856	-0.787514	-107.011	-10.983	15.5317	-119.047	-64.7702	22.0732	-94.957	-38.3568	13.1964	-108.771	-13.4927	45.38	-103.96	-69.5701	32.8323	-85.1147	-44.8709	31.2188	-101.377	-25.8584	55.9543	-101.95	-82.4252	67.5364	-80.8312	-88.7634	47.0203	-60.8957	-94.812	29.6509	-149.462	-74.9823	79.1332	-168.144	-73.452	108.4	-181.609	-57.8445	77.4646	
173	1.44167	-187.933	-16.2463	72.2795	-176.324	-8.64831	43.5719	-166.427	-4.69458	8.87046	-156.494	0.157775	-9.3161	-143.739	-50.0042	11.4205	-114.008	-33.6763	-2.21401	-108.055	-9.15917	19.6723	-122.355	-60.6009	19.0597	-96.9686	-32.8968	13.5353	-112.69	-9.55612	43.5728	-109.666	-66.1434	33.8918	-85.7966	-44.5885	30.6515	-107.549	-20.7619	51.844	-106.799	-80.4949	60.6865	-85.7604	-84.94	41.6093	-66.0808	-90.7386	25.0294	-155.433	-73.242	78.6776	-170.261	-69.6898	103.891	-186.618	-53.4616	70.6084	
174	1.45	-190.524	-13.0797	71.2766	-179.484	-7.14133	43.5456	-170.74	-1.14357	8.51786	-159.569	1.40387	-9.52137	-151.22	-44.4629	7.83644	-118.918	-31.6747	-2.21113	-114.562	-2.7465	19.2431	-126.378	-56.7129	15.8202	-100.71	-29.0992	13.805	-112.769	-8.8725	42.5485	-109.769	-64.7302	31.2625	-94.1117	-37.7968	26.0225	-110.378	-19.1385	51.4225	-110.282	-78.1795	57.436	-93.2806	-81.2668	37.1076	-73.5423	-85.6087	19.2392	-155.004	-74.1188	76.0991	-173.783	-69.8792	103.759	-189.9	-50.9611	71.5648	
175	1.45833	-196.293	-9.7528	73.8196	-186.732	-1.66397	41.2419	-174.413	0.762958	10.8515	-168.686	9.86875	-11.823	-152.345	-42.8612	7.95099	-128.044	-28.2193	-8.23192	-120.745	1.70632	13.9039	-130.309	-53.0401	12.7258	-105.47	-28.0802	9.84693	-122.009	-4.38884	42.6487	-116.255	-59.763	27.7449	-99.8148	-33.2408	23.1453	-114.469	-14.9582	46.9632	-113.821	-75.919	53.3967	-97.4303	-77.6668	34.2281	-81.4771	-82.6203	13.6416	-161.605	-67.9109	77.3375	-178.237	-65.7354	100.996	-194.159	-48.3236	71.7308	
176	1.46667	-200.016	-7.49661	69.356	-191.788	2.28828	41.152	-181.533	6.68594	10.5349	-175.066	13.9546	-11.2364	-159.097	-38.2142	6.07073	-130.753	-21.9753	-5.56635	-126.69	4.52168	13.1472	-136.607	-47.2546	10.0657	-114.622	-20.9075	6.53252	-130.12	1.68975	40.5902	-121.686	-55.3995	25.29	-102.435	-31.005	21.855	-124.256	-11.152	47.8075	-122.056	-68.7918	47.0569	-99.9956	-74.0583	28.0961	-86.771	-77.5988	9.17672	-164.511	-66.7105	74.3372	-181.237	-64.8753	99.9691	-198.722	-46.2459	67.16	
177	1.475	-206.928	-3.60374	69.4059	-196.025	5.47941	40.6702	-186.865	9.88006	11.8441	-178.052	14.6972	-13.4924	-164.053	-33.2913	-0.404512	-137.047	-17.9376	-9.19526	-134.083	11.1398	14.3421	-143.653	-43.3935	9.70272	-117.91	-14.1957	7.88711	-132.079	2.0026	39.7165	-128.175	-50.1859	19.3763	-107.947	-27.5659	18.8334	-128.42	-8.62213	47.1951	-124.304	-66.7199	49.3955	-105.739	-69.9198	27.2337	-89.9468	-73.6843	4.78617	-166.588	-65.6788	68.7617	-183.228	-63.5997	101.867	-202.103	-45.7684	69.4262	
178	1.48333	-209.035	-1.29135	69.6342	-196.77	4.0383	42.7073	-191.064	12.8803	7.52567	-184.015	20.97	-12.2635	-170.235	-28.8873	1.58404	-140.634	-15.2274	-9.85291	-137.913	15.6379	14.927	-147.684	-37.3442	2.56233	-123.933	-9.47616	5.21579	-136.692	5.76988	38.2614	-133.051	-48.3425	18.3105	-110.01	-23.6674	19.1071	-130.758	-5.9133	43.9731	-126.035	-65.8273	42.9937	-112.366	-64.8798	23.9179	-97.572	-68.232	0.692624	-168.402	-63.7445	68.9625	-188.067	-61.6097	95.3666	-206.612	-42.2853	67.671	
179	1.49167	-210.371	1.86331	73.3849	-202.06	11.3458	46.566	-191.921	15.6026	11.2379	-185.501	23.7201	-7.96481	-171.157	-25.7401	-1.75996	-149.098	-9.68335	-13.957	-138.472	12.7323	14.1664	-154.587	-35.3264	3.55094	-128.258	-10.6727	0.377462	-136.032	6.48296	36.9035	-134.595	-48.1256	18.8929	-116.499	-23.1208	13.2391	-132.166	-5.05354	43.6263	-129.844	-63.8785	38.7288	-116.242	-62.9924	16.6394	-102.707	-65.5119	-2.84104	-173.339	-61.3562	69.3947	-190.566	-57.8457	97.4556	-208.041	-39.7885	70.4235	
180	1.5	-210.922	2.41832	74.2393	-204.994	14.5759	48.1653	-198.188	20.6907	9.17215	-190.419	27.147	-11.801	-178.731	-24.7907	2.74646	-152.009	-6.83331	-11.1616	-146.801	18.7841	13.0807	-158.938	-31.4207	-0.577708	-133.32	-5.32674	-0.671136	-140.677	10.3078	35.3612	-138.827	-45.2947	11.6586	-123.463	-21.0247	7.54128	-134.655	-3.30605	41.1018	-138.488	-59.3841	32.8075	-124.692	-60.3509	12.8182	-112.952	-62.7595	-8.23726	-179.845	-58.0379	64.0282	-190.848	-61.3281	93.2973	-207.558	-38.0247	71.4903	
181	1.50833	-209.322	1.28346	75.6327	-206.731	15.0711	44.9806	-202.963	23.2521	14.4662	-197.545	30.1032	-9.2995	-182.792	-22.3602	-2.48882	-159.716	-7.2071	-13.4386	-152.987	20.9173	13.8979	-163.29	-32.8863	0.470228	-140.392	-6.69095	-5.63118	-142.576	10.2021	35.2941	-144.933	-46.0557	13.7373	-125.975	-17.5919	7.9019	-135.768	-3.03989	36.651	-139.359	-61.178	35.0547	-130.679	-57.987	6.35671	-118.891	-61.4342	-15.2741	-180.271	-58.3222	64.6708	-189.283	-59.3959	98.1367	-207.623	-39.518	68.837	
182	1.51667	-208.884	0.924587	79.9636	-206.342	13.6924	47.3698	-203.939	22.119	13.339	-200.567	30.7428	-5.86818	-186.433	-23.8016	0.596653	-162.543	-7.18844	-14.8694	-153.43	18.747	13.6758	-165.925	-32.9189	-0.640089	-138.628	-5.1497	-2.89431	-141.048	8.61711	31.0599	-148.592	-42.2731	7.57331	-128.463	-19.0775	5.4637	-136.823	-4.71783	39.865	-142.08	-61.6491	30.2661	-129.8	-63.1259	8.84163	-120.408	-60.5694	-18.2481	-176.879	-59.8765	66.3415	-189.242	-60.0279	98.5802	-208.448	-39.1487	72.6212	
183	1.525	-208.179	-2.14078	78.7794	-206.483	12.6557	48.1625	-205.085	20.513	15.4532	-198.354	25.2159	-7.5604	-183.685	-26.6728	-0.0471219	-161.05	-3.37649	-14.4129	-154.725	17.5943	11.2423	-164.783	-36.8777	2.15259	-138.618	-6.4654	-2.9412	-144.247	7.6227	33.8575	-147.925	-45.9208	9.84268	-126.174	-21.4681	5.57525	-136.024	-5.42629	35.476	-141.68	-63.2687	32.7569	-133.111	-60.8911	5.29316	-126.46	-62.7625	-16.8151	-179.347	-59.16	67.8825	-186.194	-63.8614	98.664	-207.995	-41.1448	74.9606	
184	1.53333	-208.538	-2.80817	75.5032	-204.883	11.0269	48.5084	-201.504	17.4239	16.3163	-198.808	25.8605	-3.61481	-183.526	-27.8441	1.52202	-161.913	-9.67862	-14.0898	-150.873	12.2242	12.4817	-160.644	-36.7294	-0.749369	-140.817	-9.60657	-6.13501	-143.054	7.13271	31.3216	-144.327	-48.3405	8.06324	-127.803	-23.5067	4.28692	-135.533	-7.52792	38.4936	-141.418	-64.4668	30.5154	-133.506	-63.0891	5.19521	-122.713	-65.3404	-16.0142	-176.944	-62.6635	66.6667	-185.947	-61.3367	98.9812	-207.281	-42.2849	71.8424	
185	1.54167	-206.158	-1.62181	77.3262	-202.118	9.57225	48.0553	-200.178	16.5282	14.2426	-195.031	23.2676	-6.78178	-181.428	-27.3196	-0.753148	-158.892	-11.0198	-13.3253	-148.637	10.6487	13.1366	-164.375	-36.4234	-0.953637	-137.591	-13.064	-4.03069	-139.782	3.76665	31.8419	-146.839	-49.3139	12.3596	-127.972	-25.8775	2.53696	-134.764	-9.37064	36.4562	-143.249	-62.9067	34.6151	-130.041	-65.7931	5.66902	-123.916	-65.174	-15.1474	-177.383	-62.7896	66.8411	-186.711	-61.1152	95.7264	-207.128	-40.9887	71.7205	
186	1.55	-206.778	0.0703949	78.0553	-200.357	11.1534	48.6757	-197.938	20.7979	15.9792	-191.756	26.4575	-3.4779	-181.278	-27.1281	3.75075	-154.207	-8.41839	-11.6257	-146.053	10.2961	12.9204	-161.883	-40.0687	4.07952	-135.598	-11.9979	-3.2287	-136.57	3.0547	32.8425	-144.89	-48.1442	8.97588	-122.85	-26.579	6.64883	-131.425	-12.067	41.1046	-138.618	-67.9081	31.9925	-132.114	-65.7225	8.54286	-125.42	-66.1063	-18.0424	-173.057	-65.4608	70.3149	-186.52	-64.1989	97.1755	-207.275	-39.565	75.3942	
187	1.55833	-199.781	-1.85942	80.2785	-194.902	10.3991	52.0386	-192.541	20.9172	16.8914	-188.697	27.6702	-4.43888	-177.539	-26.5369	1.03311	-155.461	-10.8152	-14.0925	-143.219	11.7376	16.7755	-161.363	-36.4254	-0.138419	-131.637	-15.5877	-3.09726	-132.779	0.756513	32.1868	-145.369	-48.6053	8.44029	-124.069	-27.1781	5.26624	-127.072	-12.2977	36.8406	-138.924	-69.3703	31.6204	-129.749	-69.8683	7.80387	-123.084	-69.6128	-16.4022	-175.454	-61.448	64.6498	-183.178	-64.2814	97.4803	-202.637	-42.419	72.7168	
188	1.56667	-197.126	1.58797	80.317	-191.615	14.3187	50.591	-188.036	22.6083	17.2636	-181.433	28.321	-5.06794	-177.475	-23.618	1.8306	-152.584	-8.98848	-13.2598	-138.065	9.60854	17.4776	-159.718	-39.1399	4.21644	-131.016	-15.2653	-2.89472	-132.896	1.5071	37.137	-143.504	-51.985	9.85433	-119.441	-30.7719	6.42637	-126.284	-14.3874	39.2285	-141.954	-68.6577	28.4186	-131.284	-71.335	8.61258	-123.215	-72.5724	-14.8238	-174.776	-66.1951	64.4197	-186.53	-62.8673	100.087	-202.728	-39.3682	71.4249	
189	1.575	-191.443	4.5278	81.4318	-183.085	13.1996	53.4872	-180.354	27.2948	21.3391	-175.686	35.1799	-2.55639	-178.579	-17.9607	4.05359	-148.692	-6.36883	-11.8185	-133.745	11.0555	15.8384	-160.684	-34.4648	2.76991	-127.401	-17.504	-1.5888	-126.627	-3.81597	38.8515	-147.151	-48.2032	7.24096	-117.403	-31.8078	7.57097	-123.309	-15.9071	41.0703	-145.846	-70.5114	27.2879	-136.907	-68.6808	5.66639	-129.103	-70.6036	-20.432	-181.221	-60.6412	67.3216	-189.712	-61.9661	99.2826	-202.34	-31.2543	74.2364	
